<svg xmlns="http://www.w3.org/2000/svg" viewBox="0 0 512 512">
  <defs>
    <linearGradient id="a" x1="50%" x2="50%" y1="0%" y2="100%">
      <stop offset="0%" stop-color="#70D8E1"/>
      <stop offset="100%" stop-color="#3DB0BF"/>
    </linearGradient>
  </defs>
  <g fill="none" fill-rule="evenodd">
    <rect width="512" height="512" fill="url(#a)" rx="150"/>
    <path fill="#FFF" fill-rule="nonzero" d="M401.664 110.336C362.756 71.428 311.024 50 256 50c-55.024 0-106.756 21.428-145.664 60.336C71.428 149.244 50 200.976 50 256c0 23.433 8.405 53.06 24.98 88.057 3.841 8.113 10.502 14.405 18.473 17.939v34.494h24.14v-32.476a37.03 37.03 0 0015.35-8.138l1.55-1.374v10.36c0 22.475 11.708 42.253 29.333 53.597V462h24.14v-34.262c3.335.54 6.749.833 10.235.833h19.862v-24.14h-19.862c-21.818 0-39.565-17.751-39.565-39.569v-65.72a35.647 35.647 0 0011.762 1.99c9.138 0 17.486-3.44 23.833-9.081 6.343 5.642 14.692 9.08 23.832 9.08 3.26 0 6.413-.455 9.415-1.272 8.232 9.518 20.384 15.559 33.928 15.559h26.181c-10.036 9.053-23.612 25.197-23.612 46.276h24.14c0-19.272 22.579-33.832 22.77-33.954l5.674-3.546v-32.917h-55.153c-11.425 0-20.723-9.298-20.723-20.723 0-4.983 4.055-9.037 9.04-9.037h100.479a3.17 3.17 0 013.165 3.165v84.772c0 30.314-24.66 54.976-54.973 54.976h-8.83v24.14h8.83c4.105 0 8.138-.313 12.073-.92V462h24.14v-42.218c23.777-12.293 40.559-36.29 42.674-64.315a38.027 38.027 0 0017.496 8.87v32.153h24.14v-34.9c7.972-3.712 14.608-10.109 18.465-18.294C453.717 308.635 462 279.264 462 256c0-55.024-21.428-106.756-60.336-145.664zM170.395 276.99c-6.485 0-11.762-5.278-11.762-11.762V200.9c0-6.488 5.277-11.766 11.762-11.766 6.488 0 11.765 5.278 11.765 11.766v64.328c0 6.488-5.277 11.762-11.765 11.762zm46.147-6.437c0 2.168.163 4.3.462 6.384-5.991-.538-10.703-5.58-10.703-11.71v-80.327c0-6.484 5.278-11.762 11.762-11.762 6.485 0 11.763 5.278 11.763 11.762v59.12c-8.063 6.057-13.284 15.694-13.284 26.533zm96.852-97.415c6.488 0 11.762 5.278 11.762 11.762v52.475h-23.525V184.9c0-6.487 5.278-11.762 11.763-11.762zm-35.903 11.762v52.475h-23.525v-64.664c0-6.485 5.278-11.763 11.763-11.763 6.487 0 11.765 5.278 11.765 11.763v12.19h-.003zM418.918 414.36v25.511h-24.14V414.36h24.14zm-301.324 0v25.511h-24.14V414.36h24.14zM256 74.14c100.278 0 181.86 81.582 181.86 181.86 0 19.68-7.51 45.587-22.318 77.005-2.301 4.878-7.311 8.034-12.771 8.034-3.754 0-7.29-1.455-9.958-4.092l-15.305-15.126v-57.14c0-15.056-12.253-27.305-27.31-27.305h-.901V184.9c0-19.796-16.107-35.902-35.903-35.902a35.678 35.678 0 00-17.364 4.491c-6.378-10.017-17.571-16.681-30.301-16.681-12.73 0-23.924 6.664-30.302 16.681A35.678 35.678 0 00218.063 149c-13.934 0-26.033 7.984-31.98 19.614a35.674 35.674 0 00-15.685-3.618c-19.796 0-35.903 16.11-35.903 35.906v121.354l-17.558 15.547a12.845 12.845 0 01-8.528 3.234c-4.95 0-9.509-2.87-11.611-7.311C81.763 301.983 74.14 275.83 74.14 256 74.14 155.722 155.722 74.14 256 74.14z"/>
  </g>
</svg>
