<?xml version="1.0" encoding="UTF-8"?>
<!DOCTYPE svg PUBLIC "-//W3C//DTD SVG 1.1//EN" "http://www.w3.org/Graphics/SVG/1.1/DTD/svg11.dtd">
<!-- Creator: CorelDRAW 2019 (64-Bit) -->
<svg xmlns="http://www.w3.org/2000/svg" xml:space="preserve" width="250px" height="250px" version="1.1" shape-rendering="geometricPrecision" text-rendering="geometricPrecision" image-rendering="optimizeQuality" fill-rule="evenodd" clip-rule="evenodd"
viewBox="0 0 250 250"
 xmlns:xlink="http://www.w3.org/1999/xlink">
 <g id="Layer_x0020_1">
  <metadata id="CorelCorpID_0Corel-Layer"/>
  <circle fill="#32A4B7" cx="124.16" cy="125.06" r="125"/>
  <path fill="#FEFEFE" d="M106.72 72.7c-6.68,0.26 -43.88,-0.92 -46.46,0.59 -0.31,0.51 -0.18,-0.11 -0.45,1.18 -0.34,1.62 -0.48,29.07 0.37,29.89 1.62,1.57 9.98,-3.99 20.23,3.59 4.41,3.27 8.69,9.11 8.7,17.07 0.02,12.98 -11.65,22.51 -23.56,21.05l-4.23 -0.67c-0.12,0.01 -0.28,0.05 -0.39,0.07 -0.11,0.01 -0.3,0.08 -0.38,0.1 -1.59,0.31 -0.91,23.24 -0.91,27.57l0.6 3.65c2.91,1.55 39.66,0.34 46.52,0.54 -0.52,1.35 -0.67,0.98 -1.57,2.17 -11.65,15.45 -1.03,38.15 18.91,38.19 10.59,0.03 18.41,-6.78 21.6,-13.87 6.69,-14.8 -3.5,-24.49 -4.27,-26.5 6.57,-0.13 43.91,0.9 46.52,-0.56 1.37,-1.34 0.57,-46.37 0.57,-51.74 0,-6.96 0.96,-48.96 -0.53,-51.73 -2.86,-1.59 -39.67,-0.35 -46.57,-0.59 0.81,-2 10.93,-11.6 4.28,-26.48 -8.21,-18.39 -35.06,-18.37 -43.21,-0.01 -1.91,4.3 -2.7,9.82 -1.61,14.93 0.49,2.32 1.3,4.28 2.35,6.25l3.49 5.31z"/>
 </g>
</svg>
